<?xml version="1.0" encoding="utf-8"?><svg viewBox="0 0 22 20" xmlns="http://www.w3.org/2000/svg" xmlns:xlink="http://www.w3.org/1999/xlink"><style>:root>svg{display:none}:root>svg:target{display:block}</style><svg viewBox="0 0 11 6" id="arrow" xmlns="http://www.w3.org/2000/svg"><path d="M.24.23a.76.76 0 000 1.108L4.88 5.77c.18.172.42.247.655.227a.839.839 0 00.584-.23l4.642-4.43a.758.758 0 000-1.107.848.848 0 00-1.16 0L5.496 4.145 1.4.23a.847.847 0 00-1.16 0z"/></svg><svg viewBox="0 0 20 20" id="dollar" xmlns="http://www.w3.org/2000/svg"><path d="M15.2 13.225c0 1.139-.37 2.12-1.11 2.941-.74.822-1.702 1.33-2.885 1.524v1.953c0 .104-.033.19-.1.257a.348.348 0 01-.257.1H9.342a.343.343 0 01-.252-.106.343.343 0 01-.106-.251V17.69a7.036 7.036 0 01-1.423-.346 7.496 7.496 0 01-1.132-.497 7.516 7.516 0 01-.826-.536 6.383 6.383 0 01-.52-.418 2.853 2.853 0 01-.195-.201c-.126-.156-.134-.309-.022-.458l1.15-1.506c.052-.075.137-.12.256-.134.112-.015.201.018.268.1l.022.022c.841.737 1.745 1.202 2.713 1.396.275.06.55.089.825.089.603 0 1.133-.16 1.59-.48.458-.32.687-.774.687-1.362 0-.208-.056-.405-.167-.591a2.09 2.09 0 00-.374-.469c-.138-.126-.355-.266-.653-.418a14.932 14.932 0 00-.737-.358 23.413 23.413 0 00-.892-.362c-.29-.12-.52-.212-.687-.28a19.326 19.326 0 01-.686-.295 8.136 8.136 0 01-.698-.346c-.175-.1-.385-.233-.63-.396a3.932 3.932 0 01-.597-.475 6.943 6.943 0 01-.486-.546 2.733 2.733 0 01-.396-.648 4.47 4.47 0 01-.234-.742 3.878 3.878 0 01-.095-.87c0-1.027.364-1.928 1.093-2.701.73-.774 1.678-1.273 2.846-1.496V.357c0-.097.036-.18.106-.251A.343.343 0 019.342 0h1.506c.104 0 .19.033.257.1s.1.153.1.257v1.964c.425.045.836.13 1.234.257s.721.251.97.374c.25.123.486.262.71.419.223.156.368.264.435.323.066.06.122.112.167.156.127.134.145.276.056.425l-.904 1.629c-.06.112-.145.171-.257.179a.356.356 0 01-.301-.079 2.276 2.276 0 00-.162-.133 6.109 6.109 0 00-.435-.296 4.984 4.984 0 00-1.484-.647 3.724 3.724 0 00-.955-.129c-.707 0-1.283.16-1.73.48-.446.32-.67.733-.67 1.239 0 .193.032.372.095.536.064.163.173.318.33.463.156.145.303.268.44.368.138.1.346.216.625.346.28.13.505.23.676.301.17.071.431.173.78.307.395.15.697.266.905.352.208.085.491.216.848.39.357.175.638.333.843.475.204.141.435.327.692.558.256.23.454.467.591.708.138.242.255.527.352.854.097.328.145.677.145 1.05z"/></svg><svg viewBox="0 0 20 20" id="mail" xmlns="http://www.w3.org/2000/svg"><path d="M1.38 5.117v9.774l4.886-4.887L1.38 5.117zm.97-.98l6.187 6.188c.782.781 2.144.781 2.926 0l6.187-6.187H2.35z"/><path d="M12.438 11.3A3.424 3.424 0 0110 12.31c-.921 0-1.788-.359-2.438-1.01l-.32-.32-4.883 4.882H17.64L12.76 10.98l-.321.321zm1.296-1.296l4.887 4.887V5.117l-4.887 4.887z"/></svg><svg viewBox="0 0 20 20" id="pistol" xmlns="http://www.w3.org/2000/svg"><path d="M16.25 3.781c.082.226.113.454.082.612a.479.479 0 01-.152.386c.017.197-.023.313-.107.344l-.164.06a.483.483 0 00-.209.168c-.011.05-.055.11-.17.16a.249.249 0 01-.137.162c-.609.25-1.126.676-1.262.891a.052.052 0 01-.018.013 3.77 3.77 0 01-.254.135.122.122 0 01-.055.08c-.457.261-.768.515-.617 1.446.14.872-.266 1.487-1.27 1.926-.565.227-.995.338-1.536.475-.285.072-.57.147-.853.226-.428.135-.523.219-.602.286a.386.386 0 01-.099.075c-.17.17-.25.29-.223.495.025.22.31 3.455.312 3.489.002.016-.01.035-.029.042l-.137.05.009.085c.126-.082.246-.157.321-.184.065-.024.111-.01.14.008.1.063.11.234.113.251 0 .018-.009.035-.026.04-.006.003-.637.303-1.038.449l-2.123.773a.1.1 0 01-.087-.007c-.052-.03-.071-.104-.074-.141l-.014-.192-.258.094-.05.33c-.002.015-.013.026-.03.032l-.238.087a.043.043 0 01-.031-.002.039.039 0 01-.02-.021l-.058-.145c-.002-.006-.005-.015-.003-.02l.026-.182c-.265.105-.99.369-1.178.279-.138-.026-.247-.191-.332-.505-.142-.646-.079-1.03.09-2.054.041-.269.092-.567.147-.932.093-.62.113-1.115.052-1.465-.007-.04-.017-.075-.024-.107a.874.874 0 00-.143-.32.556.556 0 00-.08-.09c-.01-.007-.024-.013-.029-.018-.01-.004-.01-.007-.015-.009-.018-.01-.023-.033-.012-.055l.026-.04a.051.051 0 01.013-.013l.034-.019c-.25-.17-.498-.251-1.001-.222-.285-.002-.447-.111-.487-.332-.039-.207.004-.272.092-.417.01-.017.02-.035.035-.057.106-.176.291-.51.304-.536.003-.001.004-.008.01-.014a.29.29 0 01.004-.08l.174-.831.001-.008a.039.039 0 00.006-.016c-.034-.05-.099-.097-.124-.116a.51.51 0 01-.31-.505c0-.007.003-.013.007-.019a.048.048 0 01.015-.014l-.012-.031c-.004-.012.001-.028.013-.039.004-.009.013-.012.023-.016l-.005-.034c-.001-.013.005-.025.016-.037l.026-.009.003-.033c-.001-.014.01-.027.025-.033.005-.006.016-.006.024-.006l.007-.03a.05.05 0 01.029-.032.065.065 0 01.029-.003l.011-.03a.04.04 0 01.014-.017.042.042 0 01.02-.008c.01-.004.02 0 .029.003l.018-.031c.01-.013.021-.022.037-.02.01 0 .02.003.028.007l.024-.026c.01-.014.026-.02.04-.014.007 0 .01.002.016.004l.032-.022c.01-.012.028-.014.041-.009.005.002.01.008.016.013l.03-.018a.044.044 0 01.044-.003c.005.006.011.01.013.017l.036-.013a.04.04 0 01.021-.002.037.037 0 01.019.009c.009.003.012.012.015.022l.032-.004c.016-.006.03-.001.041.012.006.005.01.014.01.025l.032-.001c.016 0 .028.007.036.019.008.007.007.017.007.028l.036.005a.043.043 0 01.02.01.04.04 0 01.011.017c.004.009.003.016 0 .029l.03.01a.097.097 0 01.023.012.6.6 0 01.06.097c.075-.142.13-.418.131-.514v-.003a.488.488 0 01.018-.07c-.005-.076.063-.245.105-.344a.047.047 0 01.028-.025l.068-.024a.047.047 0 01.026-.002.043.043 0 01.023.013l.086.094c.015.01.032.016.05.019A.133.133 0 004.194 7l10.432-3.797.044-.146c.002-.014.012-.026.03-.028l.192-.053c.007-.002.132-.034.375-.006l.098-.035a.06.06 0 01.033.001c.027.011.052.03.082.051.001.003.016.015.028.028l.015.009a.206.206 0 00.024.023c.155.01.272.08.379.22.122.103.244.294.324.514zM2.99 8.245a.19.19 0 00.18.027.19.19 0 00.12-.238.214.214 0 00-.17-.012c-.098.036-.151.133-.13.223zm6.908 1.84a.23.23 0 01.08.055c.674.19 1.444-.115 2.113-.443.373-.18.66-.51.77-.88.046-.586-.205-1.05-.676-1.239-.404-.163-.848-.043-1.347.121a.039.039 0 01-.029 0c-.273.591-.28 1.72 1.249 1.867.085.003.087.067.034.086-.712.259-1.558.047-1.797-.884a1.217 1.217 0 01-.704-.352 1.18 1.18 0 00-.15.248c-.172.372-.075.782.03 1.102.105.106.247.209.427.319z"/></svg><svg viewBox="0 0 16 15" id="power" xmlns="http://www.w3.org/2000/svg"><path fill-rule="evenodd" clip-rule="evenodd" d="M9.378.027C8.4.337 6.385 1.076 5.958 1.28c-.535.255-.553.271-1.298 1.206C1.7 6.198.43 8.945.048 12.45c-.11 1.012-.152.962 1.334 1.598 1.736.744 2.604.947 4.058.952 1.074.003 1.633-.083 3.404-.526 1.216-.305 1.24-.308 2.214-.293 1.175.017 1.547-.048 2.291-.403 1.328-.632 2.25-2.109 2.25-3.601 0-.515-.198-1.297-.475-1.873-.494-1.028-1.533-1.869-2.666-2.155-.461-.117-1.402-.13-1.902-.028-.517.107-1.372.54-1.768.895-.385.346-.38.357.174.486.521.123 1.312.627 1.485.95.055.101.02.095-.254-.043a3.294 3.294 0 00-1.538-.374c-1.074.002-1.982.417-3.114 1.422-.272.241-.505.41-.517.373-.044-.131.59-3.072.874-4.06.273-.945.627-1.952.76-2.162.048-.076.116-.077.405-.007.47.112 1.322.05 1.8-.13.356-.135.419-.139 1.043-.066.786.091.958.06 1.092-.2.139-.267.128-.357-.074-.597l-.174-.207.207-.214c.242-.25.254-.355.082-.69-.152-.298-.893-1.266-1.051-1.374a.758.758 0 00-.61-.096z"/></svg><svg viewBox="0 0 13 14" id="search" xmlns="http://www.w3.org/2000/svg"><path fill-rule="evenodd" clip-rule="evenodd" d="M8.051 9.569a5.036 5.036 0 111.017-1.017l3.721 3.72a.72.72 0 01-1.017 1.017l-3.72-3.72zm.582-4.033a3.597 3.597 0 11-7.194 0 3.597 3.597 0 017.194 0z"/></svg><svg viewBox="0 0 20 20" id="send" xmlns="http://www.w3.org/2000/svg"><g clip-path="url(#gclip0_326_818)"><path d="M2.833 17l14.542-6.233a.834.834 0 000-1.534L2.833 3a.827.827 0 00-1.158.758L1.667 7.6c0 .417.308.775.725.825L14.167 10 2.392 11.567a.843.843 0 00-.725.833l.008 3.842c0 .591.608 1 1.158.758z"/></g><defs><clipPath id="gclip0_326_818"><path d="M0 0h20v20H0z"/></clipPath></defs></svg><svg viewBox="0 0 20 20" id="settings" xmlns="http://www.w3.org/2000/svg"><path fill-rule="evenodd" clip-rule="evenodd" d="M9.532 2.5a.938.938 0 00-.939.938l-.112.787a.938.938 0 01-1.49.618l-.637-.478a.938.938 0 00-1.326 0l-.663.663a.936.936 0 000 1.325l.478.638a.938.938 0 01-.617 1.49l-.788.113a.937.937 0 00-.938.937v.938c0 .517.42.937.938.937l.787.113a.937.937 0 01.618 1.49l-.478.637a.937.937 0 000 1.326l.663.663a.935.935 0 001.325 0l.638-.477a.938.938 0 011.49.616l.113.789c0 .517.42.937.937.937h.938c.517 0 .937-.42.937-.938l.113-.787a.937.937 0 011.49-.617l.637.477a.937.937 0 001.326 0l.663-.663a.937.937 0 000-1.325l-.477-.638a.938.938 0 01.616-1.49l.789-.113c.517 0 .937-.42.937-.937v-.938a.938.938 0 00-.938-.937l-.787-.113a.938.938 0 01-.617-1.49l.477-.637a.938.938 0 000-1.326l-.663-.663a.938.938 0 00-1.325 0l-.638.478a.938.938 0 01-1.49-.617l-.113-.788a.937.937 0 00-.937-.938h-.937zM10 11.875a1.875 1.875 0 100-3.75 1.875 1.875 0 000 3.75z"/></svg><svg viewBox="0 0 15 15" id="shield" xmlns="http://www.w3.org/2000/svg"><path d="M12.85 3.323L7.694.98c-.002-.001-.004 0-.006-.002a.472.472 0 00-.377 0c-.002.001-.004 0-.006.002L2.15 3.323a.469.469 0 00-.274.427V7.5c0 3.77 1.92 5.204 5.46 6.533a.47.47 0 00.329 0c3.542-1.321 5.461-2.754 5.461-6.533V3.75a.468.468 0 00-.275-.427zm-1.131 1.03v2.678h-3.75V2.65l3.75 1.705zM3.292 7.97h3.74V12.4C4.3 11.266 3.395 10.184 3.291 7.97z"/></svg><svg viewBox="0 0 20 20" id="smile" xmlns="http://www.w3.org/2000/svg"><path d="M13.4 13c-.9 1-2.1 1.5-3.4 1.5-1.3 0-2.5-.6-3.4-1.5-.2-.2-.2-.5 0-.7.2-.2.5-.2.7 0 .7.8 1.7 1.2 2.7 1.2 1 0 2-.4 2.6-1.2.2-.2.5-.2.7 0 .2.2.2.5.1.7zM6 8c0-.6.4-1 1-1s1 .4 1 1-.4 1-1 1-1-.4-1-1zM13 9c-.6 0-1-.4-1-1s.4-1 1-1 1 .4 1 1-.5 1-1 1z"/><path fill-rule="evenodd" clip-rule="evenodd" d="M2.5 10c0-4.176 3.324-7.5 7.5-7.5s7.5 3.324 7.5 7.5-3.324 7.5-7.5 7.5A7.457 7.457 0 012.5 10zM10 3.5A6.457 6.457 0 003.5 10c0 3.624 2.876 6.5 6.5 6.5s6.5-2.876 6.5-6.5-2.876-6.5-6.5-6.5zM6.629 7.629c-.07.068-.129.185-.129.371s.06.303.129.371c.068.07.185.129.371.129s.303-.06.371-.129c.07-.068.129-.185.129-.371s-.06-.303-.129-.371C7.303 7.559 7.186 7.5 7 7.5s-.303.06-.371.129zM5.92 6.92C6.203 6.641 6.586 6.5 7 6.5c.414 0 .797.14 1.079.421.28.282.421.665.421 1.079 0 .414-.14.797-.421 1.079-.282.28-.665.421-1.079.421-.414 0-.797-.14-1.079-.421C5.641 8.797 5.5 8.414 5.5 8c0-.414.14-.797.421-1.079zm6.708.708c-.07.068-.129.185-.129.371s.06.303.129.371c.068.07.185.129.371.129.257 0 .5-.208.5-.5 0-.186-.06-.303-.129-.371-.068-.07-.185-.129-.371-.129s-.303.06-.371.129zm-.708-.708c.282-.28.665-.421 1.079-.421.414 0 .797.14 1.079.421.28.282.421.665.421 1.079 0 .908-.757 1.5-1.5 1.5-.414 0-.797-.14-1.079-.421-.28-.282-.421-.665-.421-1.079 0-.414.14-.797.421-1.079z"/></svg><svg viewBox="0 0 22 15" id="speed" xmlns="http://www.w3.org/2000/svg"><path fill-rule="evenodd" clip-rule="evenodd" d="M9.038.109c-.575.283-.583 1.263-.012 1.558.14.072.489.089 1.855.089h1.684l.487.57c.267.312.487.593.487.622 0 .053-.333.372-2.92 2.804-.843.792-1.374 1.337-1.459 1.5-.098.185-.134.36-.135.648-.003.671.09.794 1.864 2.46.861.81 1.566 1.488 1.566 1.509 0 .02-.21.086-.467.145-.936.217-3.182.76-3.413.825-.704.198-.925 1.044-.397 1.52.337.305.508.317 1.417.1a2861.559 2861.559 0 004.121-.99c.512-.123 1.008-.263 1.102-.312.255-.132.406-.422.406-.781 0-.301-.024-.344-1.232-2.107-.963-1.404-1.217-1.815-1.16-1.87.041-.04.774-.56 1.628-1.159l1.554-1.087.141.315c.078.173.266.615.42.982.172.414.347.735.46.843l.184.176 1.964.017c2.122.019 2.192.01 2.452-.298.297-.352.256-.893-.092-1.227l-.185-.178-1.572-.03-1.571-.03-.449-1.065-.448-1.065-1.86-2.2C14.435 1.183 13.518.152 13.42.1c-.27-.14-4.097-.133-4.383.008zm9.528.523c-.405.134-.608.265-.864.556-.67.76-.64 1.85.068 2.558.702.702 1.886.719 2.588.037.412-.4.556-.754.555-1.365 0-.437-.024-.556-.16-.813-.327-.615-.901-.99-1.582-1.03a1.956 1.956 0 00-.605.057zM4.538 3.454c-.31.178-.37.59-.126.872l.145.17 2.457.016c1.774.012 2.503-.002 2.626-.053.383-.159.468-.605.17-.902l-.176-.176-2.488.002c-1.758.001-2.523.022-2.608.071zm-2.12 2.107c-.072.035-.175.156-.229.269-.08.168-.085.243-.028.414.13.394.13.394 2.913.375 2.328-.016 2.5-.024 2.615-.128.164-.149.219-.427.127-.648-.145-.351-.177-.355-2.839-.35-1.58.002-2.472.026-2.558.068zM.323 7.679a.538.538 0 00-.154.885l.176.176h2.507c1.681 0 2.548-.022 2.629-.065.158-.085.29-.404.25-.608a.674.674 0 00-.18-.301l-.149-.14-2.448-.014c-1.935-.01-2.487.003-2.631.067zm4.662 2.96c-1.57 1.342-2.967 2.557-3.105 2.7-.193.2-.26.324-.293.539-.084.559.386 1.12.94 1.122.313.001.579-.164 1.875-1.17.638-.495 1.932-1.495 2.876-2.223.944-.727 1.741-1.344 1.772-1.37.031-.028-.103-.207-.314-.416-.403-.398-.723-.965-.778-1.375-.019-.137-.052-.248-.076-.248-.023 0-1.326 1.098-2.897 2.44z"/></svg></svg>