<svg width="1000" height="328" viewBox="0 0 1000 328" fill="none" xmlns="http://www.w3.org/2000/svg">
<g opacity="0.3">
<path d="M144.964 263.554H215.971V115.229H217.937V111.023H213.568V105.599H178.61V97.4076H165.283L163.316 91.9838H160.039V82.3537H159.274H158.619V91.9838H152.501V97.4076V103.606V105.599H147.367V111.023H142.997V115.229H144.964V263.554Z" fill="url(#paint0_linear_326_388)"/>
<path d="M159.275 82.3536C159.999 82.3536 160.586 81.7589 160.586 81.0253C160.586 80.2917 159.999 79.697 159.275 79.697C158.551 79.697 157.964 80.2917 157.964 81.0253C157.964 81.7589 158.551 82.3536 159.275 82.3536Z" fill="url(#paint1_linear_326_388)"/>
<path d="M803.365 272.188V72.8343L715.971 54.4596L725.585 272.188H469.303V149.1H464.606V75.3801H452.371V55.5665H448.11V26.6764H424.077V5.42382H422.001V26.6764H417.304V0H415.119V26.6764H399.935V75.3801H392.178V149.1H385.405V272.188H317.238V108.255H318.44V106.373H310.029V94.9723H311.121V93.2013H303.474V86.5598H304.129V85.2316H300.852V79.0329H297.684H297.138V56.8948H296.81H296.373H295.936V79.0329H294.516V66.7463H294.188H293.751H293.314V79.0329H289.6V85.2316H285.777V86.5598H286.978V93.2013H279.332V94.9723H280.424V106.373H272.012V108.255H273.214V272.188H45.8817V294.547H973.564V272.188H803.365Z" fill="url(#paint2_linear_326_388)"/>
</g>
<path d="M956.959 292.333V272.188H928.993L918.396 192.933H916.758V183.414H911.186V192.933H909.766V189.391H905.833V192.933H897.75V184.631H895.565V178.876H879.725V184.631H877.54V192.933H875.355V240.53H861.263V119.878H856.675V93.4226H855.145V119.878H851.649V83.1284H850.12V119.878H847.061V99.9534H845.532V119.878H818.221V205.552H787.852V261.119H759.559L737.055 219.056C740.878 216.842 744.374 214.186 747.651 211.086L752.239 216.068C751.256 216.953 750.601 218.281 750.601 219.72C750.601 222.377 752.676 224.48 755.298 224.48C757.92 224.48 759.996 222.377 759.996 219.72C759.996 217.064 757.92 214.961 755.298 214.961C754.315 214.961 753.332 215.293 752.567 215.846L747.87 210.865C748.307 210.533 748.634 210.09 749.071 209.758C753.987 204.777 757.811 199.132 760.651 193.044L765.785 195.479C765.676 195.811 765.676 196.254 765.676 196.697C765.676 199.353 767.752 201.456 770.374 201.456C772.995 201.456 775.071 199.353 775.071 196.697C775.071 194.04 772.995 191.937 770.374 191.937C768.298 191.937 766.659 193.265 766.004 195.036L760.979 192.712C764.147 185.738 765.895 178.211 766.113 170.352L771.684 170.574C771.794 173.12 773.869 175.223 776.382 175.223C779.004 175.223 781.079 173.12 781.079 170.463C781.079 167.807 779.004 165.703 776.382 165.703C773.869 165.703 771.903 167.585 771.684 170.131L766.113 169.91C766.113 169.356 766.113 168.803 766.113 168.249C766.113 161.276 764.911 154.524 762.617 148.104L767.205 146.333C767.97 147.993 769.609 149.211 771.575 149.211C774.197 149.211 776.273 147.107 776.273 144.451C776.273 141.794 774.197 139.691 771.575 139.691C768.953 139.691 766.878 141.794 766.878 144.451C766.878 144.894 766.987 145.447 767.096 145.89L762.508 147.661C759.886 140.466 755.844 133.935 750.601 128.179L754.206 124.748C755.08 125.523 756.172 126.076 757.483 126.076C760.105 126.076 762.18 123.973 762.18 121.317C762.18 118.66 760.105 116.557 757.483 116.557C754.861 116.557 752.786 118.66 752.786 121.317C752.786 122.534 753.223 123.53 753.878 124.416L750.273 127.847C749.945 127.405 749.508 127.073 749.181 126.63C743.718 121.095 737.383 116.778 730.391 113.9L732.357 109.03C732.794 109.141 733.341 109.251 733.777 109.251C736.399 109.251 738.475 107.148 738.475 104.492C738.475 101.835 736.399 99.732 733.777 99.732C731.156 99.732 729.08 101.835 729.08 104.492C729.08 106.484 730.282 108.144 731.92 108.919L729.954 113.79C723.727 111.244 717.064 109.805 710.181 109.583L710.4 102.831H710.509C713.131 102.831 715.206 100.728 715.206 98.0716C715.206 95.4151 713.131 93.312 710.509 93.312C707.887 93.312 705.812 95.4151 705.812 98.0716C705.812 100.507 707.559 102.499 709.854 102.831L709.635 109.583C709.089 109.583 708.543 109.583 707.996 109.583C701.442 109.583 694.997 110.69 688.879 112.793L687.022 107.37C688.77 106.705 689.972 104.934 689.972 102.942C689.972 100.285 687.896 98.1823 685.274 98.1823C682.652 98.1823 680.577 100.285 680.577 102.942C680.577 105.599 682.652 107.702 685.274 107.702C685.711 107.702 686.148 107.591 686.585 107.48L688.442 112.904C681.123 115.561 674.35 119.767 668.451 125.301L664.955 121.538C665.72 120.652 666.157 119.546 666.157 118.328C666.157 115.671 664.081 113.568 661.459 113.568C658.838 113.568 656.762 115.671 656.762 118.328C656.762 120.985 658.838 123.088 661.459 123.088C662.661 123.088 663.753 122.645 664.518 121.87L668.014 125.634C667.577 125.966 667.249 126.408 666.812 126.74C661.896 131.721 658.073 137.367 655.233 143.455L650.863 141.352C650.972 140.909 651.081 140.355 651.081 139.802C651.081 137.145 649.006 135.042 646.384 135.042C643.762 135.042 641.687 137.145 641.687 139.802C641.687 142.458 643.762 144.562 646.384 144.562C648.241 144.562 649.88 143.455 650.644 141.794L655.014 143.787C651.846 150.76 650.098 158.287 649.88 166.146L644.199 165.925C644.09 163.379 642.014 161.276 639.502 161.276C636.88 161.276 634.804 163.379 634.804 166.035C634.804 168.692 636.88 170.795 639.502 170.795C642.014 170.795 643.981 168.913 644.199 166.368L649.88 166.589C649.88 167.142 649.88 167.696 649.88 168.249C649.88 175.223 651.081 181.975 653.375 188.395L648.787 190.166C648.023 188.506 646.384 187.288 644.418 187.288C641.796 187.288 639.72 189.391 639.72 192.048C639.72 194.704 641.796 196.807 644.418 196.807C647.039 196.807 649.115 194.704 649.115 192.048C649.115 191.605 649.006 191.052 648.897 190.609L653.485 188.838C656.107 196.033 660.148 202.563 665.392 208.319L661.787 211.751C660.913 210.976 659.821 210.422 658.51 210.422C655.888 210.422 653.812 212.525 653.812 215.182C653.812 217.839 655.888 219.942 658.51 219.942C661.132 219.942 663.207 217.839 663.207 215.182C663.207 213.964 662.77 212.968 662.115 212.083L665.72 208.651C666.048 209.094 666.484 209.426 666.812 209.869C670.526 213.632 674.568 216.732 679.047 219.388L656.543 261.451H638.3V233.003H630.872V178.876H633.712V177.658H569.915V178.876H572.755V206.216H566.528L560.52 237.32V135.374H557.898V98.4037H544.68V83.7926H537.579V71.9487H535.067V51.6924H534.957V71.9487H532.445V83.7926H525.344V97.8503H512.235V134.821H509.504V201.899H489.185V261.008H421.892V146.665H427.354V144.894H421.892V141.684H415.01V136.37H358.859V141.684H351.977V144.894H346.515V146.665H351.977V217.839H342.801V204.445H286.214V220.717H273.869V251.046H253.878V151.756H247.214V145.004H241.971V127.183H240.878V145.004H238.366V122.645H237.273V145.004H234.214V151.756H232.576V251.046H191.173V192.823H193.14V188.838H180.358V178.101H174.241V188.838H168.669V178.101H163.098V188.838H152.283V178.101H119.183V188.838H111.427V192.823H115.796V214.739H103.561V264.218H87.0657V251.046H68.3853V279.825H45.8815V292.112H12.5627V327.311H986.672V292.112H956.959V292.333ZM736.618 217.617L728.862 203.006C731.374 201.567 733.668 199.796 735.853 197.804L746.996 209.869C743.718 212.858 740.223 215.514 736.618 217.617ZM707.341 170.906C707.559 171.017 707.778 171.017 707.887 171.017L706.686 207.876C701.988 207.655 697.618 206.659 693.467 204.999L707.341 170.906ZM693.14 204.777C691.829 204.224 690.518 203.56 689.316 202.895L706.686 170.463C706.795 170.574 706.904 170.574 707.013 170.685L693.14 204.777ZM708.543 171.017C708.761 171.017 708.98 171.017 709.198 170.906L721.324 205.663C717.282 207.102 712.912 207.876 708.433 207.876C708.106 207.876 707.778 207.876 707.45 207.876L708.543 171.017ZM709.635 170.795C709.854 170.685 709.963 170.574 710.181 170.463L727.551 202.895C725.694 203.892 723.836 204.777 721.761 205.552L709.635 170.795ZM712.585 172.788L735.198 197.25C733.122 199.243 730.828 200.903 728.425 202.342L712.585 172.788ZM711.601 170.906L710.946 169.688C711.055 169.578 711.055 169.467 711.164 169.356L744.155 184.853C742.08 189.391 739.13 193.487 735.635 196.807L711.601 170.906ZM711.383 168.913C711.492 168.692 711.492 168.471 711.601 168.139L747.979 169.356C747.76 174.669 746.559 179.761 744.483 184.299L711.383 168.913ZM711.492 167.696C711.492 167.474 711.492 167.253 711.383 167.032L745.466 154.302C746.996 158.509 747.76 163.158 747.76 167.917C747.76 168.249 747.76 168.581 747.76 168.913L711.492 167.696ZM711.274 166.478C711.164 166.257 711.055 166.036 710.837 165.814L737.382 140.577C740.769 144.34 743.609 148.768 745.357 153.638L711.274 166.478ZM710.509 165.482C710.291 165.261 710.072 165.15 709.854 165.039L723.618 130.947C728.752 133.16 733.231 136.37 737.055 140.355L710.509 165.482ZM709.307 164.818C709.089 164.707 708.87 164.707 708.761 164.707L709.963 127.847C714.66 128.069 719.03 129.065 723.181 130.725L709.307 164.818ZM708.215 164.597C707.996 164.597 707.778 164.597 707.559 164.707L695.434 129.95C699.476 128.511 703.845 127.737 708.324 127.737C708.652 127.737 708.98 127.737 709.307 127.737L708.215 164.597ZM707.013 164.929C706.795 165.039 706.576 165.15 706.358 165.371L681.451 138.474C685.274 134.821 689.862 132.054 694.887 130.172L707.013 164.929ZM706.03 165.703C705.921 165.925 705.702 166.036 705.593 166.257L672.602 150.76C674.678 146.222 677.627 142.126 681.123 138.806L706.03 165.703ZM705.375 166.7C705.265 166.921 705.265 167.142 705.156 167.474L668.779 166.257C668.997 160.944 670.199 155.852 672.274 151.314L705.375 166.7ZM705.156 168.028C705.156 168.249 705.156 168.471 705.265 168.692L671.182 181.421C669.653 177.215 668.888 172.566 668.888 167.807C668.888 167.474 668.888 167.142 668.888 166.81L705.156 168.028ZM705.484 169.246C705.593 169.467 705.702 169.578 705.812 169.799L705.593 170.242L679.375 195.147C675.989 191.384 673.148 186.956 671.4 182.086L705.484 169.246ZM704.719 171.57L688.224 202.342C685.056 200.46 682.106 198.136 679.594 195.368L704.719 171.57ZM688.879 203.56C690.19 204.224 691.501 204.888 692.812 205.552L686.585 220.827C684.728 220.052 682.871 219.167 681.014 218.171L688.879 203.56ZM693.249 205.773C697.4 207.544 701.988 208.541 706.795 208.651L706.249 225.144C699.585 224.923 693.14 223.484 687.022 221.049L693.249 205.773ZM707.341 208.651C707.669 208.651 707.996 208.651 708.433 208.651C713.022 208.651 717.5 207.876 721.542 206.437L727.004 222.045C721.105 224.148 714.879 225.144 708.433 225.144C707.887 225.144 707.341 225.144 706.904 225.144L707.341 208.651ZM721.979 206.327C724.055 205.552 726.021 204.666 727.878 203.67L735.635 218.171C733.013 219.61 730.282 220.938 727.441 221.934L721.979 206.327ZM748.416 208.43C748.088 208.762 747.651 209.205 747.323 209.537L736.181 197.472C739.786 194.04 742.735 189.834 744.92 185.185L759.777 192.158C756.937 198.136 753.113 203.56 748.416 208.43ZM759.886 191.605L745.029 184.631C747.105 179.982 748.416 174.78 748.634 169.356L764.911 169.91C764.693 177.547 762.945 184.853 759.886 191.605ZM765.021 167.807C765.021 168.36 765.021 168.913 765.021 169.356L748.744 168.803C748.744 168.471 748.744 168.139 748.744 167.696C748.744 162.825 747.87 158.176 746.34 153.86L761.634 148.104C763.819 154.413 765.021 161.054 765.021 167.807ZM749.836 128.844C754.97 134.378 758.903 140.798 761.416 147.772L746.122 153.527C744.265 148.546 741.424 144.008 737.929 140.134L749.836 128.844ZM748.416 127.294C748.744 127.626 749.181 128.069 749.508 128.401L737.601 139.691C733.777 135.596 729.08 132.275 723.946 130.061L730.173 114.786C736.836 117.664 743.063 121.87 748.416 127.294ZM710.509 110.469C717.173 110.69 723.618 112.129 729.736 114.564L723.509 129.84C719.358 128.069 714.769 127.073 709.963 126.962L710.509 110.469ZM708.324 110.469C708.87 110.469 709.417 110.469 709.854 110.469L709.307 126.962C708.98 126.962 708.652 126.962 708.215 126.962C703.627 126.962 699.148 127.737 695.106 129.176L689.644 113.568C695.652 111.576 701.879 110.469 708.324 110.469ZM689.316 113.79L694.778 129.397C689.644 131.279 684.946 134.157 681.014 137.809L669.871 125.744C675.552 120.431 682.106 116.336 689.316 113.79ZM668.342 127.294C668.669 126.962 669.106 126.519 669.434 126.187L680.577 138.252C676.972 141.684 674.022 145.89 671.837 150.539L656.98 143.565C659.821 137.588 663.535 132.054 668.342 127.294ZM656.762 144.008L671.619 150.982C669.543 155.631 668.232 160.833 668.014 166.257L651.737 165.703C652.065 158.066 653.812 150.76 656.762 144.008ZM651.737 167.807C651.737 167.253 651.737 166.7 651.737 166.257L668.014 166.81C668.014 167.142 668.014 167.474 668.014 167.917C668.014 172.788 668.888 177.437 670.417 181.754L655.123 187.509C652.829 181.2 651.737 174.669 651.737 167.807ZM666.812 206.88C661.678 201.346 657.745 194.926 655.233 187.952L670.526 182.196C672.384 187.177 675.224 191.716 678.72 195.59L666.812 206.88ZM668.342 208.43C668.014 208.098 667.577 207.655 667.249 207.323L679.157 196.033C681.778 198.8 684.728 201.235 688.005 203.117L680.249 217.728C675.879 215.071 671.947 212.083 668.342 208.43ZM680.249 219.499C682.106 220.495 683.963 221.491 685.93 222.266L683.963 227.137C683.526 227.026 682.98 226.915 682.543 226.915C679.921 226.915 677.846 229.018 677.846 231.675C677.846 234.331 679.921 236.435 682.543 236.435C685.165 236.435 687.24 234.331 687.24 231.675C687.24 229.682 686.039 228.022 684.4 227.247L686.367 222.377C692.593 224.923 699.257 226.362 706.139 226.583L706.03 231.564C703.517 231.675 701.442 233.778 701.442 236.324C701.442 238.98 703.518 241.084 706.139 241.084C708.761 241.084 710.837 238.98 710.837 236.324C710.837 233.778 708.98 231.786 706.576 231.564L706.686 226.583C707.232 226.583 707.778 226.583 708.324 226.583C714.879 226.583 721.324 225.476 727.441 223.373L729.189 228.243C727.551 229.018 726.458 230.679 726.458 232.56C726.458 235.217 728.534 237.32 731.156 237.32C733.777 237.32 735.853 235.217 735.853 232.56C735.853 229.904 733.777 227.801 731.156 227.801C730.609 227.801 730.063 227.911 729.626 228.022L727.988 223.152C730.937 222.045 733.778 220.827 736.399 219.278L758.575 260.786H657.964L680.249 219.499Z" fill="url(#paint3_linear_326_388)"/>
<path d="M844.986 146.443C845.589 146.443 846.078 145.849 846.078 145.115C846.078 144.381 845.589 143.787 844.986 143.787C844.382 143.787 843.893 144.381 843.893 145.115C843.893 145.849 844.382 146.443 844.986 146.443Z" fill="url(#paint4_linear_326_388)"/>
<path d="M966.9 307.608L960.017 261.008H945.925V222.377H947.673V218.835H940.9V203.781H940.026V218.835H935.329V206.548H934.455V218.835H906.052V222.377H908.018V300.856H875.464V265.657H857.002V179.318H858.75V175.112H855.036V169.688H850.776V167.585V161.386V156.073H845.641V146.443H844.986H844.44V156.073H841.599L839.961 161.386H828.818V169.688H799.432V175.112H795.827V179.318H797.466V235.549H772.995V290.783L745.794 278.497V224.923H750.164V220.938H742.408V210.312H709.417V220.938H698.602V210.312H693.03V220.938H687.459V210.312H681.341V220.938H668.56V224.923H670.526V299.196H658.182V298.421H655.888V277.279H658.182V275.619H655.888V254.366H658.182V252.706H655.888V231.564H658.182V229.793H655.888V208.651H658.182V206.991H655.888V185.849H658.182V184.078H655.888V162.161H659.712V160.501H661.678V155.852H625.191V150.649H626.393V149.21H606.511V150.649H607.712V155.852H598.645V160.501H600.612V162.161H604.435V184.078H602.141V185.849H604.435V206.991H602.141V208.651H604.435V229.793H602.141V231.564H604.435V252.706H602.141V254.366H604.435V275.619H602.141V277.279H604.435V298.421H602.141V300.081H604.435V317.46H591.982V250.603H541.84V299.196H533.646V147.772H527.638V151.646L516.495 154.413V151.867H510.487V155.852L499.454 158.619V155.741H493.336V160.169L482.303 162.936V160.501H476.185V164.375L465.152 167.142V165.039H459.144V313.807H450.623V234.553H419.27V283.257H387.044V241.748H383.111V228.022H385.405V226.694H375.027V222.377H373.935V226.694H370.548V204.666H369.784V226.694H365.414V228.022H367.927V241.748H346.734V273.405H326.087L315.272 313.807H293.642V181.864H264.911V177.215H266.55V175.555H244.811V177.215H246.559V181.864V189.502V279.825H233.013V245.732H237.82V242.633H203.736V222.045H197.291V217.728H182.762V222.045H170.964V295.654H132.292V241.083H99.7378V284.142H71.4442V311.815H51.1252V277.058H24.2517V306.612H0V327.533H24.2517H32.4448H45.8816H51.1252H71.4442H99.7378H109.242H114.267H132.292H170.964H182.762H197.291H203.736H229.189H233.013H246.559H269.172H280.424H293.642H346.734H358.969H379.725H387.044H419.816H428.556H459.144H462.093H465.152H476.185H482.303H493.336H498.361H499.454H510.487H516.495H526.109H527.638H530.697H533.646H541.84H583.242H589.141H591.982H604.435H626.393H646.493H655.888H670.526H706.904H745.357H745.794H772.995H788.18H797.466H803.365H848.919H857.002H866.725H875.464H908.018H932.161H937.077H945.925H1000V307.608H966.9Z" fill="url(#paint5_linear_326_388)"/>
<defs>
<linearGradient id="paint0_linear_326_388" x1="180.475" y1="263.527" x2="180.475" y2="82.3605" gradientUnits="userSpaceOnUse">
<stop stop-color="#403E40"/>
<stop offset="0.1275" stop-color="#4E4D4E"/>
<stop offset="0.3124" stop-color="#5A5A5A"/>
<stop offset="0.5479" stop-color="#626262"/>
<stop offset="1" stop-color="#646464"/>
</linearGradient>
<linearGradient id="paint1_linear_326_388" x1="159.304" y1="82.3603" x2="159.304" y2="79.685" gradientUnits="userSpaceOnUse">
<stop stop-color="#403E40"/>
<stop offset="0.1275" stop-color="#4E4D4E"/>
<stop offset="0.3124" stop-color="#5A5A5A"/>
<stop offset="0.5479" stop-color="#626262"/>
<stop offset="1" stop-color="#646464"/>
</linearGradient>
<linearGradient id="paint2_linear_326_388" x1="509.744" y1="294.565" x2="509.744" y2="0.0305468" gradientUnits="userSpaceOnUse">
<stop stop-color="#403E40"/>
<stop offset="0.1275" stop-color="#4E4D4E"/>
<stop offset="0.3124" stop-color="#5A5A5A"/>
<stop offset="0.5479" stop-color="#626262"/>
<stop offset="1" stop-color="#646464"/>
</linearGradient>
<linearGradient id="paint3_linear_326_388" x1="499.63" y1="327.588" x2="499.63" y2="51.7756" gradientUnits="userSpaceOnUse">
<stop offset="0.0814704" stop-color="#403E40"/>
<stop offset="0.4715" stop-color="#444244"/>
<stop offset="0.8768" stop-color="#504F50"/>
<stop offset="1" stop-color="#555455"/>
</linearGradient>
<linearGradient id="paint4_linear_326_388" x1="845.018" y1="143.745" x2="845.018" y2="146.421" gradientUnits="userSpaceOnUse">
<stop stop-color="#403E40"/>
<stop offset="1" stop-color="#161F21"/>
</linearGradient>
<linearGradient id="paint5_linear_326_388" x1="500" y1="146.421" x2="500" y2="327.587" gradientUnits="userSpaceOnUse">
<stop stop-color="#403E40"/>
<stop offset="1" stop-color="#161F21"/>
</linearGradient>
</defs>
</svg>
